<?xml version="1.0" encoding="utf-8"?>
<!-- Generator: Adobe Illustrator 16.0.0, SVG Export Plug-In . SVG Version: 6.00 Build 0)  -->
<!DOCTYPE svg PUBLIC "-//W3C//DTD SVG 1.1//EN" "http://www.w3.org/Graphics/SVG/1.1/DTD/svg11.dtd">
<svg version="1.1" id="Layer_1" xmlns="http://www.w3.org/2000/svg" xmlns:xlink="http://www.w3.org/1999/xlink" x="0px" y="0px"
	 width="180px" height="140px" viewBox="0 0 180 140" enable-background="new 0 0 180 140" xml:space="preserve">
<g>
	<path fill="#353535" d="M66.322,35.211h13.062v46.408c0,19.753-9.558,26.338-23.788,26.338c-3.611,0-8.177-0.639-10.938-1.7
		l1.593-10.514c2.124,0.638,4.991,1.274,8.071,1.274c7.434,0,12-3.397,12-15.824V35.211z"/>
	<path fill="#353535" d="M93.402,92.559c4.248,2.441,10.619,4.564,17.311,4.564c8.391,0,13.062-3.93,13.062-9.77
		c0-5.416-3.61-8.602-12.743-11.895c-11.789-4.247-19.327-10.513-19.327-20.814c0-11.682,9.77-20.603,25.273-20.603
		c7.752,0,13.487,1.699,17.203,3.611l-3.186,10.513c-2.548-1.38-7.54-3.398-14.23-3.398c-8.283,0-11.895,4.46-11.895,8.602
		c0,5.522,4.143,8.071,13.699,11.788c12.426,4.672,18.479,10.938,18.479,21.238c0,11.471-8.708,21.453-27.188,21.453
		c-7.538,0-15.396-2.125-19.326-4.461L93.402,92.559z"/>
</g>
<rect x="27.5" y="8.5" fill="none" stroke="#353535" stroke-width="7" stroke-miterlimit="10" width="127" height="127"/>
</svg>
