<?xml version="1.0" encoding="utf-8"?>
<!-- Generator: Adobe Illustrator 16.0.0, SVG Export Plug-In . SVG Version: 6.00 Build 0)  -->
<!DOCTYPE svg PUBLIC "-//W3C//DTD SVG 1.1//EN" "http://www.w3.org/Graphics/SVG/1.1/DTD/svg11.dtd">
<svg version="1.1" id="Layer_1" xmlns="http://www.w3.org/2000/svg" xmlns:xlink="http://www.w3.org/1999/xlink" x="0px" y="0px"
	 width="180px" height="140px" viewBox="0 0 180 140" enable-background="new 0 0 180 140" xml:space="preserve">
<g>
	<path fill="none" stroke="#353535" stroke-width="7" stroke-miterlimit="10" d="M26.473,95.027c0-34.354,27.848-62.173,62.2-62.173
		c34.351,0,62.198,27.844,62.198,62.255h17.377c0-43.875-35.627-79.63-79.575-79.63c-43.948,0-79.576,35.573-79.576,79.522
		L26.473,95.027z"/>
	<path fill="none" stroke="#353535" stroke-width="7" stroke-miterlimit="10" d="M44.244,94.802
		c0-24.535,19.892-44.428,44.429-44.428c24.536,0,44.429,19.893,44.429,44.428l-16.84,0.197c0-14.938-12.111-26.191-27.052-26.191
		c-14.94,0-27.053,11.252-27.053,26.193L44.244,94.802z"/>
	<path fill="none" stroke="#353535" stroke-width="7" stroke-miterlimit="10" d="M26.473,95.001c0-34.354,27.848-62.201,62.2-62.201
		c34.351,0,62.198,27.847,62.198,62.201l-17.77-0.199c0-24.535-19.895-44.427-44.431-44.427c-24.537,0-44.429,19.892-44.429,44.427
		L26.473,95.001z"/>
</g>
<path fill="#353535" d="M105.985,92.239h70.437c0,0,9.647,16.978-8.382,22.219c0,0,0.839,18.438-24.567,18.438
	c-23.648,0-24.066-16.384-24.066-16.384C98.859,116.513,105.985,92.239,105.985,92.239z"/>
<path fill="#353535" d="M60.595,93.29c0,0-0.419-16.384-24.068-16.384c-25.404,0-24.567,18.438-24.567,18.438
	c-18.028,5.241-8.381,22.219-8.381,22.219h70.437C74.015,117.562,81.14,93.289,60.595,93.29z"/>
</svg>
