<?xml version="1.0" encoding="utf-8"?>
<!-- Generator: Adobe Illustrator 16.0.0, SVG Export Plug-In . SVG Version: 6.00 Build 0)  -->
<!DOCTYPE svg PUBLIC "-//W3C//DTD SVG 1.1//EN" "http://www.w3.org/Graphics/SVG/1.1/DTD/svg11.dtd">
<svg version="1.1" id="ruby" xmlns="http://www.w3.org/2000/svg" xmlns:xlink="http://www.w3.org/1999/xlink" x="0px" y="0px"
	 width="180px" height="145.5px" viewBox="0 -5.5 180 145.5" enable-background="new 0 -5.5 180 145.5" xml:space="preserve">
<g>
	<polygon fill="none" stroke="#353535" stroke-width="7.7073" stroke-miterlimit="10" points="95.282,97.834 36.998,32.311 
		46.631,1 145.861,1 155.496,32.311 	"/>
	<polyline fill="none" stroke="#353535" stroke-width="6.7438" stroke-miterlimit="10" points="146.344,1 121.294,31.99 
		96.246,90.885 74.409,31.99 47.433,1 	"/>
	
		<line fill="none" stroke="#353535" stroke-width="6.7438" stroke-miterlimit="10" x1="155.496" y1="32.311" x2="36.998" y2="32.311"/>
	<polyline fill="none" stroke="#353535" stroke-width="6.7438" stroke-miterlimit="10" points="74.409,32.311 98.814,3.89 
		121.184,32.311 	"/>
</g>
<line fill="none" stroke="#353535" stroke-width="5" stroke-miterlimit="10" x1="160.166" y1="114.333" x2="29.166" y2="114.333"/>
<line fill="none" stroke="#353535" stroke-width="5" stroke-miterlimit="10" x1="160.166" y1="131" x2="29.166" y2="131"/>
<g>
	
		<line fill="none" stroke="#353535" stroke-width="6.2548" stroke-miterlimit="10" x1="144.499" y1="106.361" x2="144.499" y2="137.166"/>
	
		<line fill="none" stroke="#353535" stroke-width="6.2548" stroke-miterlimit="10" x1="120.166" y1="106.361" x2="120.166" y2="137.166"/>
	
		<line fill="none" stroke="#353535" stroke-width="6.2548" stroke-miterlimit="10" x1="95.832" y1="106.361" x2="95.832" y2="137.166"/>
	
		<line fill="none" stroke="#353535" stroke-width="6.2548" stroke-miterlimit="10" x1="71.499" y1="106.361" x2="71.499" y2="137.166"/>
	
		<line fill="none" stroke="#353535" stroke-width="6.2548" stroke-miterlimit="10" x1="47.166" y1="106.361" x2="47.166" y2="137.166"/>
</g>
</svg>
