<?xml version="1.0" encoding="utf-8"?>
<!-- Generator: Adobe Illustrator 16.0.0, SVG Export Plug-In . SVG Version: 6.00 Build 0)  -->
<!DOCTYPE svg PUBLIC "-//W3C//DTD SVG 1.1//EN" "http://www.w3.org/Graphics/SVG/1.1/DTD/svg11.dtd">
<svg version="1.1" id="Layer_1" xmlns="http://www.w3.org/2000/svg" xmlns:xlink="http://www.w3.org/1999/xlink" x="0px" y="0px"
	 width="180px" height="140px" viewBox="0 0 180 140" enable-background="new 0 0 180 140" xml:space="preserve">
<polygon fill="#353535" points="17.562,120.083 17.562,133.083 167.562,133.083 167.562,120.083 154.562,120.083 154.562,109.083 
	30.562,109.083 30.562,120.083 "/>
<path fill="#CCCCCC" d="M92.066,100.208"/>
<polygon fill="#353535" points="48.562,49.083 48.562,47.083 67.562,47.083 67.562,49.083 65.562,49.083 65.562,103.083 
	67.562,103.083 67.562,106.083 48.562,106.083 48.562,103.083 49.562,103.083 49.562,49.083 "/>
<polygon fill="#353535" points="83.562,49.083 83.562,47.083 102.562,47.083 102.562,49.083 100.562,49.083 100.562,103.083 
	102.562,103.083 102.562,106.083 83.562,106.083 83.562,103.083 85.562,103.083 85.562,49.083 "/>
<polygon fill="#353535" points="118.562,49.083 118.562,47.083 136.562,47.083 136.562,49.083 135.562,49.083 135.562,103.083 
	136.562,103.083 136.562,106.083 118.562,106.083 118.562,103.083 120.562,103.083 120.562,49.083 "/>
<path fill="#FFFFFF" d="M91.502,18.947c0.151,0,0.302,0.005,0.45,0.016"/>
<path fill="#353535" d="M92.428,6.916l51.135,30.167v7h-104v-7L92.428,6.916l-0.926,12.031c-3.522,0-6.377,2.855-6.377,6.377
	c0,3.521,2.855,6.377,6.377,6.377c3.521,0,6.377-2.855,6.377-6.377c0-3.371-2.754-6.377-6.377-6.377L92.428,6.916z"/>
</svg>
