<?xml version="1.0" encoding="utf-8"?>
<!-- Generator: Adobe Illustrator 16.0.0, SVG Export Plug-In . SVG Version: 6.00 Build 0)  -->
<!DOCTYPE svg PUBLIC "-//W3C//DTD SVG 1.1//EN" "http://www.w3.org/Graphics/SVG/1.1/DTD/svg11.dtd">
<svg version="1.1" id="Layer_1" xmlns="http://www.w3.org/2000/svg" xmlns:xlink="http://www.w3.org/1999/xlink" x="0px" y="0px"
	 width="200px" height="200px" viewBox="0 0 200 200" enable-background="new 0 0 200 200" xml:space="preserve">
<path fill="#E6E6E6" d="M131.605,34.997c3.539,0,7.076,0,10.615,0c0.137,0.162,0.248,0.436,0.411,0.47
	c6.738,1.437,12.731,4.299,17.632,9.226c0.932,0.938,1.879,0.834,3.023,0.565c5.613-1.318,10.972-3.304,16.117-5.899
	c0.781-0.394,1.512-1.404,2.854-0.509c-2.406,6.95-7.037,12.207-13.473,16.981c6.67-0.454,11.998-2.576,18.214-4.552
	c-4.246,6.298-8.836,11.109-14.155,15.217c-1.63,1.258-2.354,2.558-2.311,4.703c0.158,7.642-0.535,15.247-2.473,22.646
	c-9.646,36.868-31.789,61.812-69.142,72.197c-4.748,1.319-9.745,1.323-14.415,2.961c-6.855,0-13.709,0-20.564,0
	c-0.465-0.864-1.336-0.632-2.06-0.731c-12.709-1.777-24.699-5.686-35.824-12.129c-0.937-0.541-2.16-0.849-2.635-2.131
	c17.801,1.346,33.759-2.996,48.206-13.736c-18.665-5.096-28.876-13.08-30.354-23.646c4.47-0.048,9.002,0.761,13.575-0.862
	c-17.487-7.021-27.184-19.5-25.806-33.295c4.433,1.673,8.735,3.823,14.254,3.545c-1.365-1.2-2.194-1.907-3-2.641
	c-10.763-9.817-14.197-24.937-8.673-38.159c1.755-4.199,1.743-4.189,4.77-0.868C53.411,63.02,74.424,73.721,99.616,76.25
	c3.243,0.325,3.663-0.737,3.34-3.596c-1.964-17.291,9.039-32.83,25.901-36.849C129.779,35.586,130.9,35.962,131.605,34.997z"/>
</svg>
